<svg xmlns="http://www.w3.org/2000/svg" xmlns:xlink="http://www.w3.org/1999/xlink" viewBox="0 0 437.19 450.97"><defs><style>.cls-1{fill:none;}.cls-2{clip-path:url(#clip-path);}.cls-3{fill:#1d1d1b;}.cls-4{fill:#e30613;}</style><clipPath id="clip-path" transform="translate(0 0)"><rect class="cls-1" width="437.19" height="450.97"/></clipPath></defs><g id="Camada_2" data-name="Camada 2"><g id="Camada_1-2" data-name="Camada 1"><g class="cls-2"><path class="cls-3" d="M370.25,154.94l-26.7-43.08q-9.18.17-13.43.16h-8.19v22.77h9.83v20.15H289.65V134.79h9.83V60.58h-9.83V40.93q8.85,0,27.44-.41t30.39-.41q21.63,0,32.85,9t11.22,26.7a40.37,40.37,0,0,1-2.46,14.58A25.21,25.21,0,0,1,383.2,100a39.33,39.33,0,0,1-7,5.24,20.25,20.25,0,0,1-6,2.54l-2.45.49,17.85,26.54h11.63v20.15ZM321.93,91.87h24.41q11.63,0,17.12-3.93t5.48-12.12q0-8.19-5.4-11.8t-17.37-3.6H321.93Z" transform="translate(0 0)"/><path class="cls-3" d="M49.82,134.79v-74H40V40.6q8.2,0,27.53-.33t32.92-.33q39.33,0,39.32,29.49a26.48,26.48,0,0,1-1.8,9.91,20.78,20.78,0,0,1-4.34,7,44.17,44.17,0,0,1-5,4.34A13.87,13.87,0,0,1,124.36,93l-1.8.66v.81c.66.11,1.5.28,2.54.5a29.06,29.06,0,0,1,5.49,2.21,31.26,31.26,0,0,1,7,4.58,23.64,23.64,0,0,1,5.57,8.11A29,29,0,0,1,145.66,122q0,33.26-44.23,33.25-13.61,0-33.34-.16T40,154.94V134.79ZM98.15,60.42l-25.88.16v24.9H97.5q9.82,0,14.33-3.19t4.51-9.91q0-6.06-4.35-9T98.15,60.42m3.11,74.7q20.8,0,20.81-15.07,0-15.55-22.94-15.56H72.27V135q20,.16,29,.16" transform="translate(0 0)"/><path class="cls-3" d="M143,251.54v23.59a36.22,36.22,0,0,1-4.43,2.78q-2.94,1.65-13.26,4.43a84.94,84.94,0,0,1-22.12,2.78q-26.53,0-43.58-15.89T42.62,226q0-26,17.36-42.67t44.72-16.63a77.35,77.35,0,0,1,20.4,2.62q9.59,2.63,13.68,5.24l4.09,2.46v24.08c-.32-.32-.81-.79-1.47-1.39A46.35,46.35,0,0,0,137,196.5a48,48,0,0,0-7.38-4A59.56,59.56,0,0,0,119,189.29a64.58,64.58,0,0,0-14-1.48q-16.87,0-27.76,10.49T66.37,226q0,18,11,27.93t27,9.92a81.53,81.53,0,0,0,14.5-1.23,51.64,51.64,0,0,0,11-3,64.75,64.75,0,0,0,7.37-3.69,32.84,32.84,0,0,0,4.51-3Z" transform="translate(0 0)"/><path class="cls-3" d="M104,344q17.52,4.59,25,12t7.45,21.79q0,16.05-12,25.47t-35.87,9.42A84.27,84.27,0,0,1,69,410.47q-9.25-2.22-13.35-4.34l-3.93-2.3V380.41a52.53,52.53,0,0,0,4.75,3.27q3.1,2,12.61,5.25a58.07,58.07,0,0,0,19,3.27q24.4,0,24.41-12.61,0-5.56-6-8.6T81.85,363q-17.53-4.57-25.06-12.12T49.25,329q0-16.22,12.37-25.15t32-8.92a85.81,85.81,0,0,1,18.85,1.88q8.36,1.89,11.46,3.68l3.12,1.81v22.11q-1.32-1-3.69-2.46t-10.81-4a62.66,62.66,0,0,0-18.11-2.54q-9.33,0-15.39,2.79T73,327q0,5.58,6.15,8.77T104,344" transform="translate(0 0)"/><path class="cls-3" d="M251.9,154.94l-10.65-29.48H194.4l-10.65,29.48H155.57V134.79h11l34.56-94.36h34.08l34.56,94.36h11v20.15ZM217.82,60.09,201.28,105.8h33.09Z" transform="translate(0 0)"/><path class="cls-3" d="M261,268.82q-16.31,16.47-43,16.47t-42.76-16.14Q159.17,253,159,226.47q0-26.68,16.3-43.16t43-16.47q26.7,0,42.76,16.14t16.22,42.68q0,26.7-16.3,43.16m-43-81.17q-16.4,0-25.89,10.73t-9.5,27.77q0,17,9.58,27.68t26.13,10.65q16.38,0,25.88-10.73T253.7,226q0-17-9.59-27.68T218,187.65" transform="translate(0 0)"/><polygon class="cls-3" points="180.39 390.89 180.39 316.68 170.56 316.68 170.56 296.53 265.08 296.53 265.08 316.52 202.83 316.52 202.83 343.55 261.97 343.55 261.97 363.37 202.83 363.37 202.83 391.06 265.74 391.06 265.74 411.04 170.56 411.04 170.56 390.89 180.39 390.89"/><polygon class="cls-4" points="73.22 19.96 20 19.96 20 73.22 0 53.22 0 0 53.26 0 73.22 19.96"/><polygon class="cls-4" points="363.97 431 417.19 431 417.19 377.75 437.19 397.75 437.19 450.97 383.93 450.97 363.97 431"/></g></g></g></svg>