<svg xmlns="http://www.w3.org/2000/svg" viewBox="0 0 126.53 29.42"><defs><style>.cls-1{fill:#1d1d1b;}.cls-2{fill:#e30613;}</style></defs><g id="Camada_2" data-name="Camada 2"><g id="txt"><path class="cls-1" d="M8.92,19.86V9H7.47V6l4.06-.05c1.9,0,3.51,0,4.85,0q5.79,0,5.79,4.35a4,4,0,0,1-.26,1.46,3.13,3.13,0,0,1-.64,1,6.87,6.87,0,0,1-.74.64,2.14,2.14,0,0,1-.63.33l-.26.1v.12L20,14a5,5,0,0,1,.81.33,4.63,4.63,0,0,1,1,.67,3.59,3.59,0,0,1,.82,1.2A4.26,4.26,0,0,1,23,18q0,4.91-6.52,4.9l-4.91,0-4.14,0v-3ZM16,8.9l-3.81,0v3.67h3.71a3.7,3.7,0,0,0,2.12-.47,1.67,1.67,0,0,0,.66-1.46,1.47,1.47,0,0,0-.64-1.32A3.72,3.72,0,0,0,16,8.9Zm.46,11q3.06,0,3.06-2.22c0-1.52-1.12-2.29-3.37-2.29h-4v4.49C14.19,19.9,15.62,19.9,16.5,19.9Z"/><path class="cls-1" d="M26.8,19.86V8.92H25.36V6H39.28V8.9H30.11v4h8.71V15.8H30.11v4.08h9.27v2.94h-14v-3Z"/><path class="cls-1" d="M43.36,19.86V9H41.91V6L46,5.93c1.9,0,3.52,0,4.86,0q5.79,0,5.79,4.35a3.83,3.83,0,0,1-.27,1.46,3.13,3.13,0,0,1-.64,1,6.82,6.82,0,0,1-.73.64,2.26,2.26,0,0,1-.63.33l-.27.1v.12l.38.07a5,5,0,0,1,.81.33,4.57,4.57,0,0,1,1,.67,3.45,3.45,0,0,1,.82,1.2A4.26,4.26,0,0,1,57.48,18c0,3.27-2.18,4.9-6.52,4.9l-4.91,0-4.14,0v-3Zm7.12-11-3.82,0v3.67h3.72a3.64,3.64,0,0,0,2.11-.47,1.67,1.67,0,0,0,.67-1.46,1.49,1.49,0,0,0-.64-1.32A3.72,3.72,0,0,0,50.48,8.9Zm.46,11Q54,19.9,54,17.68c0-1.52-1.13-2.29-3.38-2.29h-4v4.49C48.63,19.9,50.05,19.9,50.94,19.9Z"/><path class="cls-1" d="M61.24,19.86V8.92H59.79V6H66v3H64.55V19.86H66v3h-6.2v-3Z"/><path class="cls-1" d="M76.56,22.87l-4.22,0-3.45,0v-3h1.45V9H68.89V6l3.6,0,4.36,0a9.81,9.81,0,0,1,6.74,2.14A7.82,7.82,0,0,1,86,14.23a8.37,8.37,0,0,1-2.41,6.39Q81.18,22.87,76.56,22.87ZM73.64,9V19.86c1.18,0,2.23,0,3.17,0a5.67,5.67,0,0,0,4.27-1.49,5.65,5.65,0,0,0,1.44-4.08,5.31,5.31,0,0,0-1.46-4A5.8,5.8,0,0,0,76.81,8.9Z"/><path class="cls-1" d="M100.72,22.82l-1.57-4.34h-6.9l-1.57,4.34H86.53v-3h1.62L93.24,6h5l5.09,13.9H105v3Zm-5-14-2.44,6.74h4.88Z"/><path class="cls-1" d="M114.16,13a8.23,8.23,0,0,1,3.68,1.77,4.32,4.32,0,0,1,1.1,3.21,4.55,4.55,0,0,1-1.76,3.75,8.5,8.5,0,0,1-5.29,1.39,12.22,12.22,0,0,1-2.88-.33,9.39,9.39,0,0,1-2-.64l-.58-.34V18.31a8,8,0,0,0,.7.48,10,10,0,0,0,1.86.78,8.59,8.59,0,0,0,2.8.48q3.6,0,3.6-1.86a1.4,1.4,0,0,0-.88-1.27,23.88,23.88,0,0,0-3.64-1.17A8.12,8.12,0,0,1,107.21,14a4.39,4.39,0,0,1-1.11-3.24A4.31,4.31,0,0,1,107.92,7a7.87,7.87,0,0,1,4.72-1.31,13,13,0,0,1,2.78.27,6.83,6.83,0,0,1,1.69.55l.45.26v3.26A6.24,6.24,0,0,0,117,9.7a7.78,7.78,0,0,0-1.59-.59,9.21,9.21,0,0,0-2.67-.38,5.52,5.52,0,0,0-2.27.41,1.38,1.38,0,0,0-.89,1.31,1.44,1.44,0,0,0,.91,1.29A21.55,21.55,0,0,0,114.16,13Z"/><polygon class="cls-2" points="10.65 2.9 2.91 2.9 2.91 10.65 0 7.74 0 0 7.74 0 10.65 2.9"/><polygon class="cls-2" points="126.53 21.68 126.53 29.42 118.79 29.42 115.88 26.51 123.62 26.51 123.62 18.77 126.53 21.68"/></g></g></svg>