<svg xmlns="http://www.w3.org/2000/svg" viewBox="0 0 182.23 52.24"><defs><style>.cls-1{fill:#fff;}.cls-2{fill:#e30613;}</style></defs><g id="Camada_2" data-name="Camada 2"><g id="txt"><path class="cls-1" d="M8.92,19.86V9H7.47V6l4.06-.05c1.9,0,3.51,0,4.85,0q5.79,0,5.79,4.35a4,4,0,0,1-.26,1.46,3.13,3.13,0,0,1-.64,1,6.87,6.87,0,0,1-.74.64,2.14,2.14,0,0,1-.63.33l-.26.1v.12L20,14a5,5,0,0,1,.81.33,4.63,4.63,0,0,1,1,.67,3.59,3.59,0,0,1,.82,1.2A4.26,4.26,0,0,1,23,18q0,4.91-6.52,4.9l-4.91,0-4.14,0v-3ZM16,8.9l-3.81,0v3.67H16a3.68,3.68,0,0,0,2.11-.47,1.67,1.67,0,0,0,.66-1.46,1.47,1.47,0,0,0-.64-1.32A3.72,3.72,0,0,0,16,8.9Zm.46,11c2,0,3.06-.73,3.06-2.22s-1.12-2.29-3.37-2.29h-4v4.49C14.19,19.9,15.62,19.9,16.5,19.9Z"/><path class="cls-1" d="M41.21,8.92v6.74q0,3.86-2,5.67a7.74,7.74,0,0,1-5.46,1.81,7.94,7.94,0,0,1-5.49-1.79c-1.32-1.19-2-3.05-2-5.57V8.92H24.87V6h6.21v3H29.63v6.4q0,4.75,4.17,4.75c2.74,0,4.1-1.53,4.1-4.61V8.92H36.46V6h6.2v3Z"/><path class="cls-1" d="M56.94,22.82,53,16.48l-2,0h-1.2v3.36h1.44v3h-6.2v-3h1.45V8.92H45.07V6c.87,0,2.22,0,4-.06s3.32-.06,4.48-.06a7.57,7.57,0,0,1,4.84,1.33,4.73,4.73,0,0,1,1.65,3.93,6,6,0,0,1-.36,2.15,3.79,3.79,0,0,1-.87,1.41,6.21,6.21,0,0,1-1,.77,2.81,2.81,0,0,1-.89.37l-.36.08,2.63,3.91h1.72v3Zm-7.11-9.29h3.59A4.34,4.34,0,0,0,55.94,13a2,2,0,0,0,.81-1.78A2,2,0,0,0,56,9.43,4.82,4.82,0,0,0,53.4,8.9H49.83Z"/><path class="cls-1" d="M77.77,7v3.47a1.64,1.64,0,0,0-.22-.18,6.94,6.94,0,0,0-.66-.41,7.7,7.7,0,0,0-1.12-.53,9.61,9.61,0,0,0-1.6-.41,11.47,11.47,0,0,0-2.07-.18A5.61,5.61,0,0,0,68,10.28a5.44,5.44,0,0,0-1.62,4.1A5.49,5.49,0,0,0,68,18.53,5.33,5.33,0,0,0,71.79,20a4.91,4.91,0,0,0,3.37-1.14,3.82,3.82,0,0,0,1.31-3v-.1H71.09V12.88h8.64q.09,1.06.09,2.22a7.87,7.87,0,0,1-2.17,5.81,8,8,0,0,1-5.91,2.18,8.89,8.89,0,0,1-6.34-2.33,8.33,8.33,0,0,1-2.47-6.38A8.33,8.33,0,0,1,65.5,8.09a9.21,9.21,0,0,1,6.62-2.45,13.27,13.27,0,0,1,3,.33,9.45,9.45,0,0,1,2,.64Z"/><path class="cls-1" d="M98.09,8.92v6.74q0,3.86-2,5.67a7.7,7.7,0,0,1-5.45,1.81,7.94,7.94,0,0,1-5.49-1.79q-2-1.79-2-5.57V8.92H81.75V6H88v3H86.51v6.4q0,4.75,4.17,4.75c2.74,0,4.1-1.53,4.1-4.61V8.92H93.34V6h6.2v3Z"/><path class="cls-1" d="M103.4,19.86V8.92H102V6h13.92V8.9H106.7v4h8.72V15.8H106.7v4.08H116v2.94H102v-3Z"/><path class="cls-1" d="M130.38,22.82l-3.94-6.34-2,0h-1.21v3.36h1.45v3H118.5v-3H120V8.92H118.5V6q1.31,0,4-.06T127,5.91a7.55,7.55,0,0,1,4.84,1.33,4.73,4.73,0,0,1,1.65,3.93,6,6,0,0,1-.36,2.15,3.79,3.79,0,0,1-.87,1.41,5.81,5.81,0,0,1-1,.77,2.87,2.87,0,0,1-.88.37L130,16l2.63,3.91h1.71v3Zm-7.12-9.29h3.59a4.36,4.36,0,0,0,2.53-.58,2.05,2.05,0,0,0,.8-1.78,2,2,0,0,0-.79-1.74,4.79,4.79,0,0,0-2.56-.53h-3.57Z"/><path class="cls-1" d="M144.42,13a8.23,8.23,0,0,1,3.68,1.77,4.32,4.32,0,0,1,1.1,3.21,4.55,4.55,0,0,1-1.76,3.75,8.5,8.5,0,0,1-5.29,1.39,12.22,12.22,0,0,1-2.88-.33,9.6,9.6,0,0,1-2-.64l-.58-.34V18.31a8,8,0,0,0,.7.48,10,10,0,0,0,1.86.78,8.59,8.59,0,0,0,2.8.48q3.6,0,3.6-1.86a1.4,1.4,0,0,0-.88-1.27,23.88,23.88,0,0,0-3.64-1.17A8.12,8.12,0,0,1,137.47,14a4.39,4.39,0,0,1-1.11-3.24A4.31,4.31,0,0,1,138.18,7a7.87,7.87,0,0,1,4.72-1.31,13,13,0,0,1,2.78.27,6.83,6.83,0,0,1,1.69.55l.45.26v3.26a5,5,0,0,0-.54-.36,7.78,7.78,0,0,0-1.59-.59A9.21,9.21,0,0,0,143,8.73a5.55,5.55,0,0,0-2.27.41,1.38,1.38,0,0,0-.89,1.31,1.44,1.44,0,0,0,.91,1.29A21.55,21.55,0,0,0,144.42,13Z"/><path class="cls-1" d="M159.21,19.86V8.92h-1.44V6h13.92V8.9h-9.17v4h8.71V15.8h-8.71v4.08h9.27v2.94h-14v-3Z"/><path class="cls-1" d="M14.93,35.3a8.23,8.23,0,0,1,3.68,1.76,4.32,4.32,0,0,1,1.1,3.21A4.52,4.52,0,0,1,18,44a8.44,8.44,0,0,1-5.29,1.39,12.22,12.22,0,0,1-2.88-.33,8.83,8.83,0,0,1-2-.64l-.58-.33V40.65c.16.13.4.29.7.49a11,11,0,0,0,1.86.77,8.59,8.59,0,0,0,2.8.48q3.6,0,3.6-1.86a1.39,1.39,0,0,0-.88-1.26,21.75,21.75,0,0,0-3.64-1.17A8.12,8.12,0,0,1,8,36.31a4.38,4.38,0,0,1-1.11-3.23,4.32,4.32,0,0,1,1.82-3.71,7.94,7.94,0,0,1,4.72-1.31,12.39,12.39,0,0,1,2.78.28,6.51,6.51,0,0,1,1.69.54l.45.26V32.4c-.12-.09-.31-.22-.54-.36a7.78,7.78,0,0,0-1.59-.59,9.21,9.21,0,0,0-2.67-.38,5.52,5.52,0,0,0-2.27.41,1.38,1.38,0,0,0-.89,1.31,1.43,1.43,0,0,0,.91,1.29A22.24,22.24,0,0,0,14.93,35.3Z"/><path class="cls-1" d="M35,45.17l-1.57-4.35h-6.9L25,45.17H20.84v-3h1.62l5.09-13.9h5l5.09,13.9h1.62v3Zm-5-14-2.43,6.73h4.87Z"/><path class="cls-1" d="M41,45.17v-3h1.45V31.27H41v-3h7l6.52,14v-11H53.11v-3h6.15v3H57.81V45.17H52.24l-6.52-14v11h1.45v3Z"/><path class="cls-1" d="M69.52,45.22l-4.23,0-3.45,0v-3h1.45V31.29H61.84v-3c.82,0,2,0,3.6,0s3,0,4.37,0a9.83,9.83,0,0,1,6.73,2.13A7.79,7.79,0,0,1,79,36.58,8.29,8.29,0,0,1,76.54,43C74.93,44.46,72.59,45.22,69.52,45.22ZM66.6,31.29V42.2c1.17,0,2.23,0,3.16,0A5.68,5.68,0,0,0,74,40.75a5.61,5.61,0,0,0,1.45-4.08,5.36,5.36,0,0,0-1.46-4,5.84,5.84,0,0,0-4.26-1.44Z"/><path class="cls-1" d="M97,31.27V38q0,3.86-2,5.67a7.7,7.7,0,0,1-5.45,1.81,7.94,7.94,0,0,1-5.49-1.78c-1.33-1.2-2-3.05-2-5.58V31.27H80.64v-3h6.2v3H85.4v6.39q0,4.76,4.17,4.76c2.74,0,4.1-1.54,4.1-4.61V31.27H92.23v-3h6.2v3Z"/><path class="cls-1" d="M101.85,42.2V31.27h-1.44v-3h6.2v3h-1.45V42.2h1.45v3h-6.2v-3Zm6.3-18.65L105,26.68h-3.11l1.54-3.13Z"/><path class="cls-1" d="M123.4,40.53V44a5.11,5.11,0,0,1-.65.41,10.66,10.66,0,0,1-2,.65,12.66,12.66,0,0,1-3.26.41,9,9,0,0,1-6.42-2.34,8.29,8.29,0,0,1-2.51-6.37,8.32,8.32,0,0,1,2.56-6.29A9.14,9.14,0,0,1,117.76,28a11.21,11.21,0,0,1,3,.39,8.46,8.46,0,0,1,2,.77l.6.36V33.1a2.53,2.53,0,0,0-.22-.2,4.87,4.87,0,0,0-.65-.47,6.74,6.74,0,0,0-1.09-.6,9.59,9.59,0,0,0-3.62-.68,5.66,5.66,0,0,0-4.09,1.54,5.4,5.4,0,0,0-1.6,4.08,5.24,5.24,0,0,0,1.62,4.11,5.67,5.67,0,0,0,4,1.46,12,12,0,0,0,2.13-.18,8,8,0,0,0,1.62-.44,10,10,0,0,0,1.09-.55,4.89,4.89,0,0,0,.66-.44Z"/><path class="cls-1" d="M138.7,38.17h-7.89v4h1.45v3h-6.2v-3h1.45V31.27h-1.45v-3h6.2v3h-1.45v3.95h7.89V31.27h-1.45v-3h6.21v3H142V42.2h1.45v3h-6.21v-3h1.45Z"/><path class="cls-1" d="M147.8,42.2V31.27h-1.45v-3h13.93v2.94h-9.17v4h8.71v2.93h-8.71v4.07h9.26v3h-14v-3Z"/><path class="cls-1" d="M170.36,35.3A8.23,8.23,0,0,1,174,37.06a4.28,4.28,0,0,1,1.1,3.21A4.52,4.52,0,0,1,173.38,44a8.44,8.44,0,0,1-5.29,1.39,12.22,12.22,0,0,1-2.88-.33,9,9,0,0,1-2-.64l-.57-.33V40.65c.16.13.39.29.69.49a11,11,0,0,0,1.86.77,8.63,8.63,0,0,0,2.8.48q3.6,0,3.6-1.86a1.39,1.39,0,0,0-.88-1.26,21.87,21.87,0,0,0-3.63-1.17,8.11,8.11,0,0,1-3.7-1.79,4.38,4.38,0,0,1-1.11-3.23,4.3,4.3,0,0,1,1.83-3.71,7.88,7.88,0,0,1,4.71-1.31,12.39,12.39,0,0,1,2.78.28,6.51,6.51,0,0,1,1.69.54l.46.26V32.4c-.13-.09-.31-.22-.55-.36a7.78,7.78,0,0,0-1.59-.59,9.21,9.21,0,0,0-2.67-.38,5.55,5.55,0,0,0-2.27.41,1.38,1.38,0,0,0-.89,1.31,1.43,1.43,0,0,0,.91,1.29A22.24,22.24,0,0,0,170.36,35.3Z"/><polygon class="cls-2" points="10.65 2.9 2.91 2.9 2.91 10.65 0 7.74 0 0 7.74 0 10.65 2.9"/><polygon class="cls-2" points="182.23 44.49 182.23 52.23 174.49 52.23 171.58 49.33 179.32 49.33 179.32 41.58 182.23 44.49"/></g></g></svg>