<svg xmlns="http://www.w3.org/2000/svg" viewBox="0 0 117.25 51.71"><defs><style>.cls-1{fill:#fff;}.cls-2{fill:#e30613;}</style></defs><g id="Camada_2" data-name="Camada 2"><g id="txt"><path class="cls-1" d="M22,20.74a8.53,8.53,0,0,1-6.33,2.42,8.52,8.52,0,0,1-6.3-2.37A8.62,8.62,0,0,1,7,14.5a8.66,8.66,0,0,1,2.4-6.36,8.52,8.52,0,0,1,6.34-2.42A8.52,8.52,0,0,1,22,8.09a8.66,8.66,0,0,1,2.39,6.29A8.67,8.67,0,0,1,22,20.74Zm-6.33-12a4.83,4.83,0,0,0-3.81,1.58,5.91,5.91,0,0,0-1.4,4.09,5.89,5.89,0,0,0,1.41,4.08,4.9,4.9,0,0,0,3.85,1.57,4.83,4.83,0,0,0,3.81-1.58,6,6,0,0,0,1.4-4.09,5.85,5.85,0,0,0-1.41-4.08A4.91,4.91,0,0,0,15.68,8.78Z"/><path class="cls-1" d="M42.68,8.92v6.74q0,3.86-2,5.67a7.71,7.71,0,0,1-5.46,1.81,7.94,7.94,0,0,1-5.49-1.79c-1.32-1.19-2-3.05-2-5.57V8.92H26.35V6h6.2v3H31.1v6.4q0,4.75,4.17,4.75c2.74,0,4.11-1.53,4.11-4.61V8.92H37.93V6h6.2v3Z"/><path class="cls-1" d="M49.58,19.86H51V9H45.46V6H59.91V9H54.34V19.86h1.45v3H49.58Z"/><path class="cls-1" d="M73.6,22.82l-3.94-6.34-2,0h-1.2v3.36h1.44v3h-6.2v-3h1.45V8.92H61.72V6c.87,0,2.22,0,4-.06s3.32-.06,4.48-.06a7.57,7.57,0,0,1,4.84,1.33,4.73,4.73,0,0,1,1.65,3.93,6,6,0,0,1-.36,2.15,3.79,3.79,0,0,1-.87,1.41,6.21,6.21,0,0,1-1,.77,2.87,2.87,0,0,1-.88.37l-.37.08,2.63,3.91h1.72v3Zm-7.12-9.29h3.59A4.34,4.34,0,0,0,72.59,13a2,2,0,0,0,.81-1.78,2,2,0,0,0-.79-1.74,4.82,4.82,0,0,0-2.56-.53H66.48Z"/><path class="cls-1" d="M93.21,22.82l-1.56-4.34H84.74l-1.56,4.34H79v-3h1.61L85.73,6h5l5.09,13.9h1.62v3Zm-5-14-2.44,6.74h4.87Z"/><path class="cls-1" d="M106.66,13a8.29,8.29,0,0,1,3.68,1.77,4.32,4.32,0,0,1,1.09,3.21,4.52,4.52,0,0,1-1.76,3.75,8.45,8.45,0,0,1-5.28,1.39,12.24,12.24,0,0,1-2.89-.33,9.25,9.25,0,0,1-2-.64L99,21.76V18.31a6.67,6.67,0,0,0,.7.48,9.38,9.38,0,0,0,1.86.78,8.54,8.54,0,0,0,2.8.48c2.39,0,3.59-.62,3.59-1.86a1.38,1.38,0,0,0-.88-1.27,24,24,0,0,0-3.63-1.17A8.12,8.12,0,0,1,99.71,14a4.39,4.39,0,0,1-1.11-3.24A4.29,4.29,0,0,1,100.42,7a7.83,7.83,0,0,1,4.72-1.31,12.94,12.94,0,0,1,2.77.27,6.83,6.83,0,0,1,1.69.55l.46.26v3.26a6.24,6.24,0,0,0-.54-.36,8.22,8.22,0,0,0-1.6-.59,9.15,9.15,0,0,0-2.66-.38,5.49,5.49,0,0,0-2.27.41,1.36,1.36,0,0,0-.89,1.31,1.44,1.44,0,0,0,.9,1.29A21.43,21.43,0,0,0,106.66,13Z"/><path class="cls-1" d="M22,43.08a8.5,8.5,0,0,1-6.33,2.43,8.52,8.52,0,0,1-6.3-2.38A8.62,8.62,0,0,1,7,36.84a8.66,8.66,0,0,1,2.4-6.36,8.56,8.56,0,0,1,6.34-2.42A8.52,8.52,0,0,1,22,30.43a8.66,8.66,0,0,1,2.39,6.29A8.67,8.67,0,0,1,22,43.08Zm-6.33-12a4.83,4.83,0,0,0-3.81,1.58,5.92,5.92,0,0,0-1.4,4.09,5.85,5.85,0,0,0,1.41,4.08,4.9,4.9,0,0,0,3.85,1.57,4.83,4.83,0,0,0,3.81-1.58,6,6,0,0,0,1.4-4.09,5.89,5.89,0,0,0-1.41-4.08A5,5,0,0,0,15.68,31.12Z"/><path class="cls-1" d="M26.83,45.17v-3h1.45V31.27H26.83v-3l3.63,0,4.43,0a7.3,7.3,0,0,1,5,1.45,5.15,5.15,0,0,1,1.64,4.08A5.39,5.39,0,0,1,39.85,38a7.39,7.39,0,0,1-5.06,1.49l-3.21,0V42.2h1.59v3Zm4.75-13.9v5.19l3.21,0a3.71,3.71,0,0,0,2.55-.68,2.54,2.54,0,0,0,.73-2,2.41,2.41,0,0,0-.76-1.94,3.91,3.91,0,0,0-2.54-.65Z"/><path class="cls-1" d="M50.4,48.23V46.57A3.5,3.5,0,0,1,51,46.4v-1a8.51,8.51,0,0,1-5.56-2.66,8.38,8.38,0,0,1-2.14-6,8.32,8.32,0,0,1,2.56-6.29A9.14,9.14,0,0,1,52.46,28a11.21,11.21,0,0,1,3,.39,8.46,8.46,0,0,1,2,.77l.6.36V33.1a2.53,2.53,0,0,0-.22-.2,4.87,4.87,0,0,0-.65-.47,6.74,6.74,0,0,0-1.09-.6,9.59,9.59,0,0,0-3.62-.68,5.66,5.66,0,0,0-4.09,1.54,5.4,5.4,0,0,0-1.6,4.08,5.24,5.24,0,0,0,1.62,4.11,5.67,5.67,0,0,0,4,1.46,12,12,0,0,0,2.13-.18,8,8,0,0,0,1.62-.44,10,10,0,0,0,1.09-.55,4.89,4.89,0,0,0,.66-.44l.19-.2V44c-.14.1-.35.22-.62.39a9.65,9.65,0,0,1-1.84.63,12.41,12.41,0,0,1-3.06.45v.92a2.81,2.81,0,0,1,1.53.79,2.37,2.37,0,0,1-.21,3.3,3.15,3.15,0,0,1-2.12.66A4.27,4.27,0,0,1,50.72,51a5.18,5.18,0,0,1-.8-.25l-.24-.15V48.86a3.57,3.57,0,0,0,2.08.6,1,1,0,0,0,.64-.19.7.7,0,0,0,0-1.09,1.11,1.11,0,0,0-.65-.19,3.79,3.79,0,0,0-.67.06l-.51.11Z"/><path class="cls-1" d="M75.18,43.08a8.54,8.54,0,0,1-6.34,2.43,8.52,8.52,0,0,1-6.3-2.38,8.66,8.66,0,0,1-2.39-6.29,8.63,8.63,0,0,1,2.41-6.36,8.53,8.53,0,0,1,6.33-2.42,8.52,8.52,0,0,1,6.3,2.37,8.66,8.66,0,0,1,2.39,6.29A8.66,8.66,0,0,1,75.18,43.08Zm-6.34-12A4.83,4.83,0,0,0,65,32.7a6,6,0,0,0-1.4,4.09A5.85,5.85,0,0,0,65,40.87a4.9,4.9,0,0,0,3.85,1.57,4.83,4.83,0,0,0,3.81-1.58,5.91,5.91,0,0,0,1.4-4.09,5.89,5.89,0,0,0-1.41-4.08A4.93,4.93,0,0,0,68.84,31.12Zm-3.67-3.86,0-2.94a3,3,0,0,1,.28-.32,3.57,3.57,0,0,1,.74-.5,2.34,2.34,0,0,1,1.13-.32,3,3,0,0,1,1.68.61,3.26,3.26,0,0,0,1.45.6,1.75,1.75,0,0,0,1-.36,3.14,3.14,0,0,0,.79-.73l.29-.36,0,2.95c-.06.08-.15.18-.27.31a3.28,3.28,0,0,1-.75.51,2.29,2.29,0,0,1-1.12.31,3.21,3.21,0,0,1-1.69-.6,3,3,0,0,0-1.45-.61,1.7,1.7,0,0,0-1,.37,3.32,3.32,0,0,0-.79.72Z"/><path class="cls-1" d="M81.44,42.2V31.27H80v-3H93.91v2.94H84.74v4h8.72v2.93H84.74v4.07H94v3H80v-3Z"/><path class="cls-1" d="M104,35.3a8.23,8.23,0,0,1,3.68,1.76,4.32,4.32,0,0,1,1.1,3.21A4.52,4.52,0,0,1,107,44a8.44,8.44,0,0,1-5.29,1.39,12.22,12.22,0,0,1-2.88-.33,8.83,8.83,0,0,1-2-.64l-.58-.33V40.65c.16.13.4.29.7.49a11,11,0,0,0,1.86.77,8.59,8.59,0,0,0,2.8.48q3.6,0,3.6-1.86a1.39,1.39,0,0,0-.88-1.26,21.75,21.75,0,0,0-3.64-1.17,8.12,8.12,0,0,1-3.69-1.79,4.38,4.38,0,0,1-1.11-3.23,4.32,4.32,0,0,1,1.82-3.71,7.94,7.94,0,0,1,4.72-1.31,12.39,12.39,0,0,1,2.78.28,6.51,6.51,0,0,1,1.69.54l.45.26V32.4c-.13-.09-.31-.22-.54-.36a7.78,7.78,0,0,0-1.59-.59,9.21,9.21,0,0,0-2.67-.38,5.52,5.52,0,0,0-2.27.41,1.38,1.38,0,0,0-.89,1.31,1.43,1.43,0,0,0,.9,1.29A22.83,22.83,0,0,0,104,35.3Z"/><polygon class="cls-2" points="10.65 2.9 2.91 2.9 2.91 10.65 0 7.74 0 0 7.74 0 10.65 2.9"/><polygon class="cls-2" points="117.25 43.97 117.25 51.71 109.51 51.71 106.61 48.8 114.34 48.8 114.34 41.06 117.25 43.97"/></g></g></svg>