<svg id="Grupo_17786" data-name="Grupo 17786" xmlns="http://www.w3.org/2000/svg" width="1200" height="375.871" viewBox="0 0 1200 375.871">
  <g id="Grupo_17785" data-name="Grupo 17785" transform="translate(0 23.939)">
    <path id="Caminho_10972" data-name="Caminho 10972" d="M49.266,181.969c0-89.75,93.222-157.726,188.119-112.34a107.894,107.894,0,0,1,29.862,21.2L300.582,57.5A175.448,175.448,0,0,0,176.068,5.86C78.843,5.86,0,84.7,0,181.969c0,84.276,59.193,154.662,138.281,171.983L78.6,263.058A126.3,126.3,0,0,1,49.266,181.969Z" transform="translate(0 -5.86)" fill="#a8005b"/>
    <path id="Caminho_10973" data-name="Caminho 10973" d="M236.015,42.94H86.336L37.07,92.166H186.013a126.115,126.115,0,0,1-26.88,56.5L99.49,239.515A176.086,176.086,0,0,0,237.771,67.532,174.681,174.681,0,0,0,236.015,42.94Z" transform="translate(114.365 108.536)" fill="#a8005b"/>
  </g>
  <path id="Caminho_10974" data-name="Caminho 10974" d="M148.866,38.32V160.71q0,53,41.791,52.984,41.852,0,41.832-52.984V38.32h49.266V161.772q0,25.614-6.332,44.2Q269.3,222.64,254.18,235.957q-24.94,21.692-63.482,21.692-38.3,0-63.278-21.692Q112.1,222.6,105.728,205.973q-6.128-14.89-6.128-44.2V38.32Z" transform="translate(307.277 118.221)" fill="#a8005b"/>
  <path id="Caminho_10975" data-name="Caminho 10975" d="M208.666,38.32v213.2H159.4V38.32Z" transform="translate(491.766 118.221)" fill="#a8005b"/>
  <path id="Caminho_10976" data-name="Caminho 10976" d="M351.514,42.793h49.471V256H351.514V233.65q-30.454,28.432-65.443,28.473-44.242,0-73.123-31.946-28.677-32.6-28.677-81.457,0-47.918,28.677-79.9T284.764,36.87q37.2,0,66.792,30.638V42.793ZM234.639,148.72q0,30.638,16.422,49.92,16.851,19.486,42.485,19.486,27.39,0,44.2-18.832,16.851-19.486,16.872-49.471,0-29.964-16.872-49.471Q320.9,81.3,293.955,81.316q-25.43,0-42.485,19.241C240.236,113.547,234.639,129.643,234.639,148.72Z" transform="translate(568.493 113.748)" fill="#a8005b"/>
  <path id="Caminho_10977" data-name="Caminho 10977" d="M301.807,0V369.743H252.54V0Z" transform="translate(779.113)" fill="#a8005b"/>
  <path id="Caminho_10978" data-name="Caminho 10978" d="M329.136,38.32v213.2H279.87V38.32Z" transform="translate(863.429 118.221)" fill="#a8005b"/>
  <path id="Caminho_10979" data-name="Caminho 10979" d="M278.05,42.421a30.639,30.639,0,0,1,9.4-22.346,32,32,0,0,1,45.3,0,30.257,30.257,0,0,1,9.437,22.55A30.9,30.9,0,0,1,332.75,65.38a30.257,30.257,0,0,1-22.55,9.437,30.9,30.9,0,0,1-22.754-9.437A31.219,31.219,0,0,1,278.05,42.421Z" transform="translate(857.814 32.949)" fill="#a8005b"/>
  <path id="Caminho_10980" data-name="Caminho 10980" d="M157.58,42.421a30.639,30.639,0,0,1,9.4-22.346,32,32,0,0,1,45.3,0,30.257,30.257,0,0,1,9.437,22.55A30.9,30.9,0,0,1,212.28,65.38a30.257,30.257,0,0,1-22.55,9.437,30.9,30.9,0,0,1-22.754-9.437A31.219,31.219,0,0,1,157.58,42.421Z" transform="translate(486.151 32.949)" fill="#a8005b"/>
</svg>
