<svg id="Grupo_17786" data-name="Grupo 17786" xmlns="http://www.w3.org/2000/svg" width="961.689" height="301.226" viewBox="0 0 961.689 301.226">
  <g id="Grupo_17785" data-name="Grupo 17785" transform="translate(0 19.185)">
    <path id="Caminho_10972" data-name="Caminho 10972" d="M39.482,147c0-71.926,74.709-126.4,150.76-90.03a86.467,86.467,0,0,1,23.932,16.991l26.714-26.715A141.1,141.1,0,1,0,110.819,284.823L62.989,211.981A101.22,101.22,0,0,1,39.482,147Z" transform="translate(0 -5.86)" fill="#fff"/>
    <path id="Caminho_10973" data-name="Caminho 10973" d="M196.506,42.94H76.552L37.07,82.39H156.434a101.069,101.069,0,0,1-21.542,45.277l-47.8,72.81A141.116,141.116,0,0,0,197.914,62.648,139.992,139.992,0,0,0,196.506,42.94Z" transform="translate(84.291 78.454)" fill="#fff"/>
  </g>
  <path id="Caminho_10974" data-name="Caminho 10974" d="M139.082,38.32V136.4q0,42.478,33.491,42.462,33.541,0,33.524-42.462V38.32H245.58v98.935q0,20.527-5.074,35.423-4.911,13.357-17.024,24.03-19.987,17.384-50.875,17.384-30.692,0-50.712-17.384Q109.618,186,104.511,172.678,99.6,160.745,99.6,137.255V38.32Z" transform="translate(226.474 87.133)" fill="#fff"/>
  <path id="Caminho_10975" data-name="Caminho 10975" d="M198.882,38.32V209.181H159.4V38.32Z" transform="translate(362.449 87.133)" fill="#fff"/>
  <path id="Caminho_10976" data-name="Caminho 10976" d="M318.3,41.617h39.646V212.479H318.3V194.571q-24.406,22.786-52.447,22.819-35.456,0-58.6-25.6-22.982-26.125-22.982-65.28,0-38.4,22.982-64.036t57.554-25.6q29.808,0,53.527,24.554V41.617Zm-93.664,84.891q0,24.554,13.161,40.006,13.5,15.616,34.048,15.616,21.951,0,35.423-15.092,13.5-15.616,13.521-39.646,0-24.014-13.521-39.646-13.5-15.272-35.1-15.256-20.38,0-34.048,15.42C229.121,98.32,224.636,111.219,224.636,126.508Z" transform="translate(419 83.836)" fill="#fff"/>
  <path id="Caminho_10977" data-name="Caminho 10977" d="M292.023,0V296.315H252.54V0Z" transform="translate(574.234)" fill="#fff"/>
  <path id="Caminho_10978" data-name="Caminho 10978" d="M319.353,38.32V209.181H279.87V38.32Z" transform="translate(636.378 87.133)" fill="#fff"/>
  <path id="Caminho_10979" data-name="Caminho 10979" d="M278.05,36.118a24.554,24.554,0,0,1,7.53-17.908,25.647,25.647,0,0,1,36.307,0,24.248,24.248,0,0,1,7.563,18.072,24.765,24.765,0,0,1-7.562,18.235,24.248,24.248,0,0,1-18.071,7.563,24.765,24.765,0,0,1-18.235-7.563A25.019,25.019,0,0,1,278.05,36.118Z" transform="translate(632.24 24.285)" fill="#fff"/>
  <path id="Caminho_10980" data-name="Caminho 10980" d="M157.58,36.118a24.554,24.554,0,0,1,7.53-17.908,25.647,25.647,0,0,1,36.307,0,24.248,24.248,0,0,1,7.563,18.072,24.765,24.765,0,0,1-7.563,18.235,24.248,24.248,0,0,1-18.072,7.563,24.765,24.765,0,0,1-18.235-7.563A25.019,25.019,0,0,1,157.58,36.118Z" transform="translate(358.311 24.285)" fill="#fff"/>
</svg>
